<?xml version="1.0" encoding="UTF-8"?>
<svg id="a" xmlns="http://www.w3.org/2000/svg" viewBox="0 0 2000 2000">
	<defs>
		<style>
			.bf{fill:#4c5fab;}.yf{fill:#d69003;}.gb{fill:#005e00;}.tf{fill:#333;}.rf{fill:#eb2e40;}.gf{fill:#18b13d;}.rb{fill:#a10000;}.bb{fill:#00004d;}.yb{fill:#fdc609;}
		</style>
	</defs>
	<g>
		<g>
			<path class="yf"
			      d="M583.35861,956.17186l-245.92321-65.89518c-21.93242-5.87678-44.47622,7.13894-50.35304,29.07129l-136.5983,509.79037c-5.87682,21.93235,7.13882,44.47619,29.07125,50.35297l509.79034,136.59842c21.93242,5.87678,44.47622-7.13894,50.35304-29.07129l41.85165-156.19201c-154.47691-99.77082-237.45227-287.2841-198.19173-474.65456Z"/>
			<path class="yb"
			      d="M555.07434,907.18207h0l-245.92321-65.89518c-21.93242-5.87678-44.47622,7.13894-50.35304,29.07129l-136.5983,509.79037c-5.87682,21.93235,7.13882,44.47619,29.07125,50.35297l509.79034,136.59842c21.93242,5.87678,44.47622-7.13894,50.35304-29.07129l41.85165-156.19201c-154.47691-99.77082-237.45227-287.2841-198.19173-474.65456Z"/>
		</g>
		<g>
			<path class="gb"
			      d="M1667.29676,1246.61247l-207.28665-55.54254c-64.14607,195.49489-250.65281,320.53253-450.41971,312.12472h0l-39.03537,145.68105c-5.87676,21.93236,7.13894,44.47622,29.07131,50.35298l509.79034,136.59842c21.93236,5.87676,44.47622-7.13894,50.35298-29.07131l136.59842-509.79034c5.87676-21.93236-7.13894-44.47622-29.07131-50.35298Z"/>
			<path class="gf"
			      d="M1639.01249,1197.62268l-207.28665-55.54254c-64.14607,195.49489-250.65281,320.53253-450.41971,312.12472l-39.03537,145.68105c-5.87676,21.93236,7.13894,44.47622,29.07131,50.35298l509.79034,136.59842c21.93236,5.87676,44.47622-7.13894,50.35298-29.07131l136.59842-509.79034c5.87676-21.93236-7.13894-44.47622-29.07131-50.35298Z"/>
		</g>
		<g>
			<path class="bb"
			      d="M1847.763,569.23959l-509.79035-136.59836c-21.93236-5.87676-44.47621,7.13888-50.35298,29.07131l-49.33024,184.10202c166.11607,86.32681,263.80872,268.25732,241.42767,456.32571h0l210.16582,56.31395c21.93236,5.87676,44.47621-7.13888,50.35297-29.07125l136.59842-509.79034c5.87678-21.93242-7.13893-44.47628-29.07129-50.35304Z"/>
			<path class="bf"
			      d="M1819.47873,520.24979l-509.79035-136.59836c-21.93236-5.87676-44.47621,7.13888-50.35298,29.07131l-49.33024,184.10202c166.11595,86.32678,263.80872,268.25732,241.42767,456.32571l210.16582,56.31395c21.93236,5.87676,44.47621-7.13888,50.35297-29.07125l136.59842-509.79034c5.87678-21.93242-7.13893-44.47628-29.07129-50.35304Z"/>
		</g>
		<g>
			<path class="rb"
			      d="M1005.52488,594.94252l52.20425-194.82846c5.87683-21.93241-7.13881-44.47625-29.07123-50.35302l-509.79035-136.59836c-21.93242-5.87678-44.47621,7.13888-50.35304,29.07129l-136.5983,509.79037c-5.87683,21.93241,7.13882,44.47619,29.07125,50.35297l249.76925,66.92566h0c68.96831-160.81057,224.07242-265.84216,394.76818-274.36045Z"/>
			<path class="rf"
			      d="M977.24061,545.95272l52.20425-194.82846c5.87683-21.93241-7.13881-44.47625-29.07123-50.35302L490.58327,164.17289c-21.93242-5.87678-44.47621,7.13888-50.35304,29.07129l-136.5983,509.79037c-5.87683,21.93241,7.13882,44.47619,29.07125,50.35297l249.76925,66.92566c68.96831-160.81057,224.07242-265.84216,394.76818-274.36045Z"/>
		</g>
	</g>
	<g>
		<path d="M974.37695,1356.23926c-70.2832,0-125.62109-15.63574-166.01562-46.89941-34.0332-26.00488-51.04885-56.03027-51.04885-90.06348,0-17.43164,5.25197-31.88672,15.7715-43.37207,10.51172-11.47852,25.03711-17.22363,43.57812-17.22363,24.90234,0,43.16406,12.72949,54.78516,38.18359,15.77148,34.0332,51.46484,51.0498,107.08008,51.0498,47.58789,0,93.65625-10.37598,138.20898-31.12793,46.20508-21.30371,69.31055-44.68164,69.31055-70.1416,0-34.86328-14.39062-57.82617-43.16406-68.89648-20.47852-8.02148-61.56836-12.72363-123.26562-14.11133-47.87305-1.10254-90.75781-10.09766-128.66211-26.97754-51.19336-22.96387-76.36719-55.8877-75.53711-98.7793,.83008-53.95508,29.60352-103.40967,86.32812-148.37646,56.7168-44.96045,119.25195-67.44385,187.59766-67.44385,27.11328,0,60.5957,6.22559,100.43945,18.67676,49.52539,15.49902,74.29102,33.3457,74.29102,53.54004,0,14.39014-4.98047,27.12012-14.94141,38.18359-11.07031,12.45117-25.31641,18.67676-42.74805,18.67676-13.00977,0-32.44531-2.7627-58.3125-8.30078-25.87695-5.53174-45.44727-8.30078-58.72852-8.30078-35.69336,.27881-69.5918,8.8584-101.68555,25.73242-33.20312,17.15918-49.80469,35.83594-49.80469,56.03027,0,10.51855,5.04492,19.16309,15.15039,25.93994,10.0957,6.7832,25.24414,11.55615,45.44531,14.31885,35.41406,1.93896,70.69336,3.87793,105.83594,5.81055,61.42578,4.70801,109.98438,21.99707,145.67773,51.87988,39.28711,33.20312,58.93555,79.13574,58.93555,137.79297,0,71.38672-40.67383,125.48438-122.02148,162.28027-61.98242,27.94336-132.8125,41.91895-212.5,41.91895Z"/>
		<path class="tf"
		      d="M934.37695,1316.23926c-70.2832,0-125.62109-15.63574-166.01562-46.89941-34.0332-26.00488-51.04885-56.03027-51.04885-90.06348,0-17.43164,5.25197-31.88672,15.7715-43.37207,10.51172-11.47852,25.03711-17.22363,43.57812-17.22363,24.90234,0,43.16406,12.72949,54.78516,38.18359,15.77148,34.0332,51.46484,51.0498,107.08008,51.0498,47.58789,0,93.65625-10.37598,138.20898-31.12793,46.20508-21.30371,69.31055-44.68164,69.31055-70.1416,0-34.86328-14.39062-57.82617-43.16406-68.89648-20.47852-8.02148-61.56836-12.72363-123.26562-14.11133-47.87305-1.10254-90.75781-10.09766-128.66211-26.97754-51.19336-22.96338-76.36719-55.8877-75.53711-98.7793,.83008-53.95508,29.60352-103.40967,86.32812-148.37646,56.7168-44.96045,119.25195-67.44385,187.59766-67.44385,27.11328,0,60.5957,6.22559,100.43945,18.67676,49.52539,15.49902,74.29102,33.3457,74.29102,53.54004,0,14.39014-4.98047,27.12012-14.94141,38.18359-11.07031,12.45117-25.31641,18.67676-42.74805,18.67676-13.00977,0-32.44531-2.7627-58.3125-8.30078-25.87695-5.53174-45.44727-8.30078-58.72852-8.30078-35.69336,.27881-69.5918,8.8584-101.68555,25.73242-33.20312,17.15918-49.80469,35.83594-49.80469,56.03027,0,10.51855,5.04492,19.16309,15.15039,25.93994,10.0957,6.7832,25.24414,11.55615,45.44531,14.31885,35.41406,1.93896,70.69336,3.87793,105.83594,5.81055,61.42578,4.70801,109.98438,21.99707,145.67773,51.87988,39.28711,33.20312,58.93555,79.13574,58.93555,137.79297,0,71.38672-40.67383,125.48438-122.02148,162.28027-61.98242,27.94336-132.8125,41.91895-212.5,41.91895Z"/>
	</g>
</svg>