<?xml version="1.0" encoding="UTF-8"?><svg id="Layer_1" xmlns="http://www.w3.org/2000/svg" viewBox="0 0 2000 2000"><defs><style>.cls-1{fill:#fff;}.cls-1,.cls-2,.cls-3{stroke-width:0px;}.cls-2{fill:#d5b778;}.cls-3{fill:#1e1f22;}</style></defs><rect class="cls-3" width="2000" height="2000"/><path class="cls-2" d="m255.7007,965.3499v8.0996l292.0498,62.5508v98.0996l-372.1504-89.5508v-150.2988l372.1504-89.5508v98.0996l-292.0498,62.5508Z"/><path class="cls-1" d="m551.3501,1247.5002l18.9004-575.1006h170.0996l108,365.8506h5.8496l107.5508-365.8506h169.6494l19.3506,575.1006h-114.3008l-5.3994-207-4.9502-238.9512h-7.2002l-112.9502,378.9004h-109.7998l-113.3994-378.9004h-7.2002l-4.9502,239.4004-4.9502,206.5508h-114.2998Z"/><path class="cls-2" d="m1102.1499,1358.2004l292.0498-716.4009h103.5l-292.0498,716.4009h-103.5Z"/><path class="cls-2" d="m1744.7495,965.3499l-292.0498-62.5508v-98.0996l371.7002,89.5508v150.2988l-371.7002,89.5508v-98.0996l292.0498-62.5508v-8.0996Z"/></svg>